<svg width="200" height="200" viewBox="0 0 200 200" fill="none" xmlns="http://www.w3.org/2000/svg">
<path opacity="0.6" d="M116.667 133.333C116.667 148.083 110.25 161.417 100 170.5C91.1666 178.5 79.5 183.333 66.6666 183.333C39.0833 183.333 16.6666 160.917 16.6666 133.333C16.6666 110.333 32.3333 90.8333 53.5 85.0833C59.25 99.5833 71.5833 110.75 86.8333 114.917C91 116.083 95.4166 116.667 100 116.667C104.583 116.667 109 116.083 113.167 114.917C115.417 120.583 116.667 126.833 116.667 133.333Z" fill="#1B74FD"/>
<path d="M150 66.6667C150 73.1667 148.75 79.4167 146.5 85.0833C140.75 99.5833 128.417 110.75 113.167 114.917C109 116.083 104.583 116.667 100 116.667C95.4167 116.667 91 116.083 86.8333 114.917C71.5833 110.75 59.25 99.5833 53.5 85.0833C51.25 79.4167 50 73.1667 50 66.6667C50 39.0833 72.4167 16.6667 100 16.6667C127.583 16.6667 150 39.0833 150 66.6667Z" fill="#1B74FD"/>
<path opacity="0.4" d="M183.333 133.333C183.333 160.917 160.917 183.333 133.333 183.333C120.5 183.333 108.833 178.5 100 170.5C110.25 161.417 116.667 148.083 116.667 133.333C116.667 126.833 115.417 120.583 113.167 114.917C128.417 110.75 140.75 99.5833 146.5 85.0833C167.667 90.8333 183.333 110.333 183.333 133.333Z" fill="#1B74FD"/>
</svg>
